<svg xmlns="http://www.w3.org/2000/svg" xmlns:xlink="http://www.w3.org/1999/xlink" version="1.1" width="485.213" height="485.212" style="" xml:space="preserve"><rect id="backgroundrect" width="100%" height="100%" x="0" y="0" fill="none" stroke="none"/>
















<g class="currentLayer" style=""><title>Layer 1</title><g id="svg_1" class="selected" fill="#c70101" fill-opacity="1" stroke-opacity="1" stroke="#c70101">
	<path d="M241.85512030792236,0 C107.87712030792237,0 -0.7508796920776367,108.628 -0.7508796920776367,242.606 c0,133.976 108.628,242.606 242.606,242.606 c133.978,0 242.604,-108.631 242.604,-242.606 C484.46012030792235,108.628 375.83312030792234,0 241.85512030792236,0 zM369.96712030792236,353.989 l-19.425,19.429 c-3.468,3.463 -13.623,5.6240000000000006 -13.949,5.6240000000000006 c-61.452,0.536 -120.621,-23.602 -164.095,-67.08 c-43.593,-43.618 -67.759,-102.998 -67.11,-164.657 c0,-0.028000000000000004 2.224,-9.892 5.689,-13.324 l19.424,-19.427 c7.108,-7.141 20.762,-10.368 30.327,-7.168 l4.086,1.363 c9.537,3.197 19.55,13.742 22.185,23.457 l9.771,35.862 c2.6350000000000002,9.743 -0.919,23.604 -8.025,30.712 l-12.97,12.972 c12.734,47.142 49.723,84.138 96.873,96.903 l12.965,-12.975 c7.141,-7.141 20.997,-10.692 30.719,-8.061 l35.857,9.806000000000001 c9.717,2.67 20.26,12.620000000000001 23.456,22.154 l1.363,4.145 C380.2761203079224,333.262 377.0741203079224,346.913 369.96712030792236,353.989 z" id="svg_2" fill="#c70101" fill-opacity="1" stroke="#c70101"/>
</g><g id="svg_3">
</g><g id="svg_4">
</g><g id="svg_5">
</g><g id="svg_6">
</g><g id="svg_7">
</g><g id="svg_8">
</g><g id="svg_9">
</g><g id="svg_10">
</g><g id="svg_11">
</g><g id="svg_12">
</g><g id="svg_13">
</g><g id="svg_14">
</g><g id="svg_15">
</g><g id="svg_16">
</g><g id="svg_17">
</g></g></svg>